# xmcd CD database file
#
# Track frame offsets:
#	150
#	19235
#	38555
#
# Disc length: 867 seconds
#
# Revision: 0
# Processed by: cddbd v1.5.1PL0 Copyright (c) Steve Scherf et al.
# Submitted via: CDex 1.51
#
DISCID=19036103
DTITLE=こいこい7 - SUPER LOVE
DYEAR=2005
DGENRE=Anime
TTITLE0=SUPER LOVE
TTITLE1=SUPER LOVE (Instruments)
TTITLE2=SUPER LOVE (Megalomania Mix)
EXTD=YEAR: 2005
EXTT0=
EXTT1=
EXTT2=
PLAYORDER=
